<svg xmlns="http://www.w3.org/2000/svg" width="60" height="60" viewBox="0 0 60 60"><path d="M29.932,46.442a15.383,15.383,0,1,0,15.38,15.383A15.357,15.357,0,0,0,29.932,46.442Zm0,25.384a10,10,0,1,1,10-10,10.018,10.018,0,0,1-10,10Zm19.6-26.014a3.587,3.587,0,1,1-3.587-3.588A3.579,3.579,0,0,1,49.528,45.813Zm10.186,3.642c-.228-4.806-1.325-9.064-4.846-12.572S47.105,32.277,42.3,32.036c-4.953-.281-19.8-.281-24.75,0-4.792.228-9.049,1.325-12.569,4.833S.377,44.634.136,49.441c-.281,4.954-.281,19.8,0,24.755C.363,79,1.461,83.26,4.981,86.768s7.764,4.606,12.569,4.847c4.953.281,19.8.281,24.75,0,4.805-.228,9.062-1.325,12.569-4.847S59.473,79,59.714,74.2C60,69.242,60,54.408,59.714,49.454Zm-6.4,30.057a10.124,10.124,0,0,1-5.7,5.7c-3.949,1.566-13.318,1.2-17.682,1.2s-13.747.348-17.682-1.2a10.124,10.124,0,0,1-5.7-5.7c-1.566-3.95-1.2-13.321-1.2-17.686s-.348-13.75,1.2-17.686a10.124,10.124,0,0,1,5.7-5.7c3.949-1.566,13.318-1.2,17.682-1.2s13.747-.348,17.682,1.2a10.124,10.124,0,0,1,5.7,5.7c1.566,3.95,1.2,13.321,1.2,17.686S54.882,75.575,53.316,79.511Z" transform="translate(0.075 -31.825)" fill="#233540"/></svg>